<?xml version="1.0" standalone="no"?>
<!DOCTYPE svg PUBLIC "-//W3C//DTD SVG 20010904//EN"
 "http://www.w3.org/TR/2001/REC-SVG-20010904/DTD/svg10.dtd">
<svg version="1.0" xmlns="http://www.w3.org/2000/svg"
 width="700.000000pt" height="700.000000pt" viewBox="0 0 700.000000 700.000000"
 preserveAspectRatio="xMidYMid meet">
<metadata>
Created by potrace 1.14, written by Peter Selinger 2001-2017
</metadata>
<g transform="translate(0.000000,700.000000) scale(0.100000,-0.100000)"
fill="#000000" stroke="none">
<path d="M1167 6994 c-1 -1 -22 -4 -47 -8 -105 -14 -130 -20 -230 -53 -226
-75 -398 -191 -586 -394 -124 -136 -236 -373 -282 -600 -19 -93 -20 -157 -19
-2370 0 -2504 -4 -2364 63 -2567 67 -205 161 -359 314 -513 91 -92 224 -190
330 -244 121 -61 307 -116 445 -132 56 -6 944 -10 989 -4 l29 4 -39 23 c-106
64 -240 236 -333 426 -97 200 -187 524 -216 778 -3 30 -8 66 -10 80 -2 14 -7
61 -10 105 -4 44 -9 89 -12 100 -9 34 -15 5030 -6 5022 34 -35 1395 -1383
1673 -1657 192 -190 512 -507 712 -705 l362 -360 1 -417 c1 -230 -1 -418 -4
-418 -3 0 -45 40 -92 88 -62 62 -2076 2064 -2104 2090 -5 6 2 -2981 8 -3018 3
-19 8 -78 11 -130 12 -191 30 -343 71 -610 55 -353 199 -723 362 -932 10 -12
56 -61 103 -109 160 -162 354 -263 645 -337 l110 -28 995 2 c1293 3 1348 4
1428 21 37 8 78 17 92 19 156 31 406 166 547 296 44 41 59 57 126 131 73 81
217 333 217 379 0 8 4 18 9 23 10 11 46 144 55 208 3 20 9 53 12 72 7 49 9
4541 1 4585 -3 19 -9 58 -13 85 -17 134 -123 402 -197 500 -192 256 -355 385
-622 492 -176 70 -269 79 -842 82 -271 1 -493 0 -493 -3 0 -3 15 -13 32 -22
46 -24 151 -127 208 -204 83 -112 145 -236 224 -447 15 -41 52 -174 62 -222 3
-12 11 -51 19 -85 17 -74 24 -109 31 -161 2 -22 9 -71 15 -110 5 -38 12 -95
15 -125 3 -30 7 -73 10 -95 2 -22 6 -98 10 -170 8 -197 11 -4896 3 -4893 -5 2
-344 336 -755 743 -410 407 -886 879 -1058 1048 -712 705 -936 931 -936 946
-3 80 0 814 2 817 2 1 496 -487 1098 -1086 602 -599 1097 -1089 1100 -1090 15
-1 1 2914 -14 3070 -2 19 -7 82 -10 140 -4 58 -9 119 -11 135 -3 17 -7 53 -10
80 -13 116 -28 228 -39 281 -2 12 -7 39 -10 60 -8 51 -35 176 -52 242 -34 127
-44 162 -74 242 -186 504 -477 762 -1005 890 -87 21 -96 21 -1246 19 -638 -2
-1160 -3 -1162 -5z"/>
</g>
</svg>
